<svg width="390" height="204" viewBox="0 0 390 204" fill="none" xmlns="http://www.w3.org/2000/svg">
<path fill-rule="evenodd" clip-rule="evenodd" d="M315.749 260.28C300.564 276.341 299.954 305.778 279.344 313.741C258.492 321.798 234.82 310.446 215.7 298.936C197.523 287.994 190.569 266.596 175.774 251.393C151.551 226.502 95.9393 216.093 101.696 181.791C107.476 147.356 166.058 159.28 194.613 139.144C215.463 124.441 217.485 83.9005 242.919 82.205C269.012 80.4655 275.859 124.464 300.862 132.062C336.073 142.762 387.469 102.468 408.626 132.561C428.364 160.634 385.167 195.393 364.942 223.205C352.563 240.228 330.21 244.985 315.749 260.28Z" fill="#E1EFFD"/>
<path fill-rule="evenodd" clip-rule="evenodd" d="M-42.4103 108.543C-26.6064 93.0922 -24.8392 63.7012 -3.9328 56.5547C17.2202 49.3238 40.4277 61.5978 59.0803 73.8503C76.8129 85.4986 82.921 107.153 97.107 122.926C120.333 148.749 175.492 161.336 168.391 195.386C161.263 229.567 103.195 215.349 73.8707 234.347C52.4584 248.219 48.8446 288.649 23.3634 289.344C-2.77789 290.056 -7.89018 245.823 -32.5747 237.248C-67.338 225.172 -120.278 263.415 -140.236 232.514C-158.855 203.686 -114.325 170.652 -93.0228 143.657C-79.9841 127.133 -57.4614 123.259 -42.4103 108.543Z" fill="#E1EFFD"/>
<path fill-rule="evenodd" clip-rule="evenodd" d="M353.697 152.385C368.53 150.217 383.24 157.46 394.134 167.76C405.344 178.359 414.69 192.905 412.741 208.211C410.911 222.594 397.677 232.497 384.998 239.523C375.501 244.786 364.546 240.502 353.697 240.93C341.962 241.393 329.291 249.049 319.825 242.095C309.906 234.809 308.437 220.5 309.156 208.211C309.833 196.654 316.353 187.124 323.572 178.076C332.129 167.35 340.124 154.369 353.697 152.385Z" fill="#E1EFFD"/>
<path fill-rule="evenodd" clip-rule="evenodd" d="M23.2523 113.173C45.2418 112.099 72.99 107.964 85.4633 125.997C97.8518 143.908 81.669 167.171 74.895 187.837C70.8768 200.096 62.5987 208.916 54.8866 219.283C44.6675 233.02 39.8904 252.973 23.2523 257.256C4.43208 262.101 -19.0341 256.874 -30.4953 241.265C-41.4899 226.29 -27.2715 206.37 -27.7173 187.837C-28.1865 168.333 -44.1493 147.937 -33.1286 131.793C-21.5687 114.859 2.68994 114.178 23.2523 113.173Z" fill="#BCDEFB"/>
</svg>
