<svg width="158" height="198" viewBox="0 0 158 198" fill="none" xmlns="http://www.w3.org/2000/svg">
<path fill-rule="evenodd" clip-rule="evenodd" d="M169.332 -118.076C204.807 -131.605 240.533 -95.1243 270.151 -71.3395C298.545 -48.5381 332.063 -22.3046 333.931 14.1048C335.768 49.8849 300.303 74.5611 279.12 103.426C265.154 122.458 253.109 143.877 231.599 153.552C212.188 162.283 189.862 147.205 169.332 152.808C135.546 162.03 109.127 208.227 76.3293 195.934C46.5652 184.779 59.5907 136.814 47.7855 107.254C34.6733 74.421 -13.3362 44.7718 3.56101 13.7236C21.7873 -19.7668 82.3732 12.6116 112.197 -11.1003C144.61 -36.871 130.659 -103.327 169.332 -118.076Z" fill="#F0F7FF"/>
<path fill-rule="evenodd" clip-rule="evenodd" d="M144.369 -55.3086C171.039 -59.2024 197.489 -46.1957 217.077 -27.6992C237.234 -8.66684 254.039 17.4527 250.535 44.9382C247.243 70.7651 223.448 88.5491 200.651 101.165C183.573 110.616 163.876 102.922 144.369 103.691C123.268 104.523 100.485 118.271 83.4633 105.784C65.6283 92.7005 62.9877 67.006 64.2812 44.9382C65.4976 24.1856 77.2213 7.07156 90.2017 -9.17617C105.588 -28.4352 119.963 -51.7455 144.369 -55.3086Z" fill="#E1EFFD"/>
</svg>
