<svg width="17" height="17" viewBox="0 0 17 17" fill="none" xmlns="http://www.w3.org/2000/svg">
<path d="M14.4101 2L12.9934 3.41667M12.9934 3.41667L15.1184 5.54167L12.6393 8.02083L10.5143 5.89583M12.9934 3.41667L10.5143 5.89583M7.60302 8.80708C7.96876 9.16796 8.25951 9.59761 8.45852 10.0713C8.65752 10.545 8.76086 11.0534 8.76258 11.5672C8.76431 12.081 8.66437 12.5901 8.46855 13.0651C8.27272 13.5401 7.98486 13.9717 7.62154 14.335C7.25823 14.6983 6.82663 14.9862 6.35161 15.182C5.87659 15.3779 5.36752 15.4778 4.85372 15.4761C4.33992 15.4743 3.83153 15.371 3.35783 15.172C2.88413 14.973 2.45448 14.6822 2.09361 14.3165C1.38395 13.5817 0.991271 12.5976 1.00015 11.5762C1.00902 10.5547 1.41874 9.57757 2.14106 8.85525C2.86338 8.13293 3.84051 7.72321 4.86198 7.71433C5.88346 7.70546 6.86755 8.09813 7.60231 8.80779L7.60302 8.80708ZM7.60302 8.80708L10.5143 5.89583" stroke="#FF7F3E" stroke-width="1.5" stroke-linecap="round" stroke-linejoin="round"/>
</svg>
