<svg width="24" height="24" viewBox="0 0 24 24" fill="none" xmlns="http://www.w3.org/2000/svg">
<rect width="24" height="24" rx="12" fill="#EDEDED"/>
<path d="M14.4185 16.4828V18.7242C14.4185 19.3186 14.1977 19.8887 13.8046 20.3091C13.4115 20.7294 12.8784 20.9655 12.3225 20.9655H3.93852C3.38263 20.9655 2.84951 20.7294 2.45643 20.3091C2.06336 19.8887 1.84253 19.3186 1.84253 18.7242V5.27581C1.84253 4.68136 2.06336 4.11125 2.45643 3.69091C2.84951 3.27057 3.38263 3.03442 3.93852 3.03442H11.9033C13.0608 3.03442 14.4185 4.03801 14.4185 5.27581V7.51721" stroke="#EC4747" stroke-width="2" stroke-linecap="round" stroke-linejoin="round"/>
<path d="M18.288 15.9847L22.1575 11.5019L18.288 7.0191" stroke="#EC4747" stroke-width="2" stroke-linecap="round" stroke-linejoin="round"/>
<path d="M7.64685 12H21.1902" stroke="#EC4747" stroke-width="2" stroke-linecap="round" stroke-linejoin="round"/>
</svg>
