<svg width="17" height="15" viewBox="0 0 17 15" fill="none" xmlns="http://www.w3.org/2000/svg">
<path d="M10.1667 10.5892V12.1338C10.1667 12.5435 10.0145 12.9364 9.7436 13.226C9.47271 13.5157 9.10531 13.6785 8.72222 13.6785H2.94444C2.56135 13.6785 2.19395 13.5157 1.92307 13.226C1.65218 12.9364 1.5 12.5435 1.5 12.1338V2.86593C1.5 2.45627 1.65218 2.06338 1.92307 1.77371C2.19395 1.48403 2.56135 1.32129 2.94444 1.32129H8.43333C9.23103 1.32129 10.1667 2.0129 10.1667 2.86593V4.41058" stroke="#EC4747" stroke-width="1.4" stroke-linecap="round" stroke-linejoin="round"/>
<path d="M12.8334 10.246L15.5 7.15667L12.8334 4.06738" stroke="#EC4747" stroke-width="1.4" stroke-linecap="round" stroke-linejoin="round"/>
<path d="M5.5 7.5H14.8333" stroke="#EC4747" stroke-width="1.4" stroke-linecap="round" stroke-linejoin="round"/>
</svg>
