<svg width="12" height="12" viewBox="0 0 24 24" fill="none" xmlns="http://www.w3.org/2000/svg">
  <path fill-rule="evenodd" clip-rule="evenodd" d="M3.09998 6.0001C3.09998 5.50304 3.50292 5.1001 3.99998 5.1001H20C20.497 5.1001 20.9 5.50304 20.9 6.0001C20.9 6.49715 20.497 6.9001 20 6.9001H3.99998C3.50292 6.9001 3.09998 6.49715 3.09998 6.0001Z" fill="black"/>
  <path fill-rule="evenodd" clip-rule="evenodd" d="M3.09961 12.0001C3.09961 11.503 3.41653 11.1001 3.80747 11.1001H16.3917C16.7827 11.1001 17.0996 11.503 17.0996 12.0001C17.0996 12.4972 16.7827 12.9001 16.3917 12.9001H3.80747C3.41653 12.9001 3.09961 12.4972 3.09961 12.0001Z" fill="black"/>
  <path fill-rule="evenodd" clip-rule="evenodd" d="M3.09998 18.0001C3.09998 17.503 3.50292 17.1001 3.99998 17.1001H20C20.497 17.1001 20.9 17.503 20.9 18.0001C20.9 18.4972 20.497 18.9001 20 18.9001H3.99998C3.50292 18.9001 3.09998 18.4972 3.09998 18.0001Z" fill="black"/>
</svg>