<svg width="293" height="293" viewBox="0 0 293 293" fill="none" xmlns="http://www.w3.org/2000/svg">
<g clip-path="url(#clip0_118_7820)">
<mask id="mask0_118_7820" style="mask-type:luminance" maskUnits="userSpaceOnUse" x="0" y="0" width="293" height="293">
<path d="M293 0H0V293H293V0Z" fill="white"/>
</mask>
<g mask="url(#mask0_118_7820)">
<path d="M192.325 352.608V192.389H265.722V373.61" stroke="#C8C8C8" stroke-width="4.82" stroke-miterlimit="10"/>
<path d="M199.621 207.151V216.527H208.997V199.319H199.621V207.151ZM201.162 200.857H207.444V207.151H201.162V200.857ZM201.162 208.689H207.444V214.983H201.162V208.689Z" fill="#C8C8C8"/>
<path d="M216.152 207.151V216.527H225.528V199.319H216.152V207.151ZM217.699 200.86H223.993V207.151H217.699V200.86ZM217.699 208.692H223.993V214.986H217.699V208.692Z" fill="#C8C8C8"/>
<path d="M232.231 207.151V216.527H241.607V199.319H232.231V207.151ZM233.773 200.857H240.066V207.151H233.773V200.857ZM233.773 208.689H240.066V214.983H233.773V208.689Z" fill="#C8C8C8"/>
<path d="M247.368 199.319V216.527H256.744V199.319H247.368ZM255.203 214.986H248.906V208.692H255.203V214.986ZM255.203 207.151H248.906V200.86H255.203V207.151Z" fill="#C8C8C8"/>
<path d="M199.621 230.297V239.673H208.997V222.468H199.621V230.297ZM201.162 224.003H207.444V230.297H201.162V224.003ZM201.162 231.835H207.444V238.129H201.162V231.835Z" fill="#C8C8C8"/>
<path d="M216.152 230.297V239.673H225.528V222.468H216.152V230.297ZM217.699 224.006H223.993V230.297H217.699V224.006ZM217.699 231.838H223.993V238.132H217.699V231.838Z" fill="#C8C8C8"/>
<path d="M232.231 230.297V239.673H241.607V222.468H232.231V230.297ZM233.773 224.003H240.066V230.297H233.773V224.003ZM233.773 231.835H240.066V238.129H233.773V231.835Z" fill="#C8C8C8"/>
<path d="M247.368 230.297V239.673H256.744V222.468H247.368V230.297ZM248.906 224.003H255.203V230.297H248.906V224.003ZM248.906 231.835H255.203V238.129H248.906V231.835Z" fill="#C8C8C8"/>
<path d="M199.621 253.444V262.82H208.997V245.615H199.621V253.444ZM201.162 247.15H207.444V253.444H201.162V247.15ZM201.162 254.985H207.444V261.279H201.162V254.985Z" fill="#C8C8C8"/>
<path d="M216.152 253.444V262.82H225.528V245.615H216.152V253.444ZM217.699 247.153H223.993V253.444H217.699V247.153ZM217.699 254.988H223.993V261.282H217.699V254.988Z" fill="#C8C8C8"/>
<path d="M232.231 253.444V262.82H241.607V245.615H232.231V253.444ZM233.773 247.15H240.066V253.444H233.773V247.15ZM233.773 254.985H240.066V261.279H233.773V254.985Z" fill="#C8C8C8"/>
<path d="M247.368 253.444V262.82H256.744V245.615H247.368V253.444ZM248.906 247.15H255.203V253.444H248.906V247.15ZM248.906 254.985H255.203V261.279H248.906V254.985Z" fill="#C8C8C8"/>
<path d="M199.621 276.591V285.967H208.997V268.762H199.621V276.591ZM201.162 270.297H207.444V276.591H201.162V270.297ZM201.162 278.129H207.444V284.423H201.162V278.129Z" fill="#C8C8C8"/>
<path d="M216.152 276.591V285.967H225.528V268.762H216.152V276.591ZM217.699 270.303H223.993V276.591H217.699V270.303ZM217.699 278.135H223.993V284.429H217.699V278.135Z" fill="#C8C8C8"/>
<path d="M232.231 276.591V285.967H241.607V268.762H232.231V276.591ZM233.773 270.297H240.066V276.591H233.773V270.297ZM233.773 278.129H240.066V284.423H233.773V278.129Z" fill="#C8C8C8"/>
<path d="M247.368 276.591V285.967H256.744V268.762H247.368V276.591ZM248.906 270.297H255.203V276.591H248.906V270.297ZM248.906 278.129H255.203V284.423H248.906V278.129Z" fill="#C8C8C8"/>
<path d="M199.621 299.739V309.115H208.997V291.909H199.621V299.739ZM201.162 293.445H207.444V299.739H201.162V293.445ZM201.162 301.277H207.444V307.571H201.162V301.277Z" fill="#C8C8C8"/>
<path d="M216.152 299.739V309.115H225.528V291.909H216.152V299.739ZM217.693 293.445H223.987V299.739H217.699L217.693 293.445ZM217.693 301.277H223.987V307.571H217.699L217.693 301.277Z" fill="#C8C8C8"/>
<path d="M232.231 299.739V309.115H241.607V291.909H232.231V299.739ZM233.773 293.445H240.066V299.739H233.773V293.445ZM233.773 301.277H240.066V307.571H233.773V301.277Z" fill="#C8C8C8"/>
<path d="M247.368 299.739V309.115H256.744V291.909H247.368V299.739ZM248.906 293.445H255.203V299.739H248.906V293.445ZM248.906 301.277H255.203V307.571H248.906V301.277Z" fill="#C8C8C8"/>
<path d="M152.155 127.088V46.9441H225.548V192.395" stroke="#C8C8C8" stroke-width="4.82" stroke-miterlimit="10"/>
<path d="M159.451 61.7054V71.0814H168.827V53.8706H159.451V61.7054ZM160.992 55.4118H167.286V61.7054H160.992V55.4118ZM160.992 63.2437H167.286V69.5373H160.992V63.2437Z" fill="#C8C8C8"/>
<path d="M175.984 61.7054V71.0814H185.36V53.8706H175.984V61.7054ZM177.523 55.4118H183.816V61.7054H177.523V55.4118ZM177.523 63.2437H183.816V69.5373H177.523V63.2437Z" fill="#C8C8C8"/>
<path d="M192.064 61.7054V71.0814H201.44V53.8706H192.064V61.7054ZM193.603 55.4118H199.896V61.7054H193.603V55.4118ZM193.603 63.2437H199.896V69.5373H193.603V63.2437Z" fill="#C8C8C8"/>
<path d="M207.198 53.8706V71.0756H216.574V53.8706H207.198ZM215.03 69.5373H208.739V63.2437H215.03V69.5373ZM215.03 61.7054H208.739V55.4118H215.03V61.7054Z" fill="#C8C8C8"/>
<path d="M159.451 84.8519V94.2279H168.827V77.02H159.451V84.8519ZM160.992 78.5583H167.286V84.8519H160.992V78.5583ZM160.992 86.3902H167.286V92.6838H160.992V86.3902Z" fill="#C8C8C8"/>
<path d="M175.984 84.8519V94.2279H185.36V77.02H175.984V84.8519ZM177.523 78.5583H183.816V84.8519H177.523V78.5583ZM177.523 86.3902H183.816V92.6838H177.523V86.3902Z" fill="#C8C8C8"/>
<path d="M192.064 84.8519V94.2279H201.44V77.02H192.064V84.8519ZM193.603 78.5583H199.896V84.8519H193.603V78.5583ZM193.603 86.3902H199.896V92.6838H193.603V86.3902Z" fill="#C8C8C8"/>
<path d="M207.198 84.8519V94.2279H216.574V77.02H207.198V84.8519ZM208.739 78.5583H215.03V84.8519H208.739V78.5583ZM208.739 86.3902H215.03V92.6838H208.739V86.3902Z" fill="#C8C8C8"/>
<path d="M159.451 107.999V117.375H168.827V100.167H159.451V107.999ZM160.992 101.705H167.286V107.999H160.992V101.705ZM160.992 109.54H167.286V115.834H160.992V109.54Z" fill="#C8C8C8"/>
<path d="M175.984 107.999V117.375H185.36V100.167H175.984V107.999ZM177.523 101.705H183.816V107.999H177.523V101.705ZM177.523 109.54H183.816V115.834H177.523V109.54Z" fill="#C8C8C8"/>
<path d="M192.064 107.999V117.375H201.44V100.167H192.064V107.999ZM193.603 101.705H199.896V107.999H193.603V101.705ZM193.603 109.54H199.896V115.834H193.603V109.54Z" fill="#C8C8C8"/>
<path d="M207.198 107.999V117.375H216.574V100.167H207.198V107.999ZM208.739 101.705H215.03V107.999H208.739V101.705ZM208.739 109.54H215.03V115.834H208.739V109.54Z" fill="#C8C8C8"/>
<path d="M159.451 131.149V140.525H168.827V123.314H159.451V131.149ZM160.992 124.855H167.286V131.149H160.992V124.855ZM160.992 132.687H167.286V138.981H160.992V132.687Z" fill="#C8C8C8"/>
<path d="M175.984 131.149V140.525H185.36V123.314H175.984V131.149ZM177.523 124.855H183.816V131.149H177.523V124.855ZM177.523 132.687H183.816V138.981H177.523V132.687Z" fill="#C8C8C8"/>
<path d="M192.064 131.149V140.525H201.44V123.314H192.064V131.149ZM193.603 124.855H199.896V131.149H193.603V124.855ZM193.603 132.687H199.896V138.981H193.603V132.687Z" fill="#C8C8C8"/>
<path d="M207.198 131.149V140.525H216.574V123.314H207.198V131.149ZM208.739 124.855H215.03V131.149H208.739V124.855ZM208.739 132.687H215.03V138.981H208.739V132.687Z" fill="#C8C8C8"/>
<path d="M175.984 154.296V163.672H185.36V146.461H175.984V154.296ZM177.523 148.002H183.816V154.296H177.523V148.002ZM177.523 155.834H183.816V162.128H177.523V155.834Z" fill="#C8C8C8"/>
<path d="M192.064 154.296V163.672H201.44V146.461H192.064V154.296ZM193.603 148.002H199.896V154.296H193.603V148.002ZM193.603 155.834H199.896V162.128H193.603V155.834Z" fill="#C8C8C8"/>
<path d="M207.198 154.296V163.672H216.574V146.461H207.198V154.296ZM208.739 148.002H215.03V154.296H208.739V148.002ZM208.739 155.834H215.03V162.128H208.739V155.834Z" fill="#C8C8C8"/>
<path d="M80.6158 111.632C76.2208 102.145 72.9538 92.1684 70.1967 82.0921C62.6695 54.5765 79.3588 21.9979 108.137 15.9651C117.915 13.9141 128.102 14.4063 137.842 16.4192C153.93 19.7389 168.226 31.1629 176.298 45.4642C180.368 52.672 182.94 60.791 183.224 69.0917C183.567 79.0713 178.8 87.5361 177.291 97.2021L177.238 97.5244" stroke="#C8C8C8" stroke-width="1.6" stroke-miterlimit="10"/>
<path d="M177.933 278.303C177.019 278.452 178.844 278.18 177.933 278.303ZM177.933 278.303C207.151 278.35 229.539 255.821 225.903 223.421C222.472 192.908 204.965 172.418 184.956 151.844C176.14 142.779 169.521 120.642 175.601 112.623" stroke="#C8C8C8" stroke-width="1.6" stroke-miterlimit="10"/>
<path d="M66.1152 161.294C66.1152 161.915 66.1357 162.536 66.1533 163.145C66.5108 174.042 69.098 181.206 70.6597 184.59C70.1484 183.146 69.972 181.603 70.144 180.081C70.2539 179.048 70.4171 178.021 70.6333 177.004C71.861 171.3 74.6459 166.049 78.6791 161.833L78.7172 161.798C79.2534 161.241 79.6665 160.866 79.8892 160.667L79.9888 160.564L80.0913 160.482L125.533 117.25C125.816 115.389 125.996 113.514 126.072 111.633C128.357 111.982 130.859 112.245 133.599 112.424C135.753 112.556 138.07 112.632 140.534 112.641C163.186 112.717 172.917 116.216 176.69 118.278C176.907 118.397 177.15 118.458 177.397 118.454C177.644 118.451 177.885 118.383 178.098 118.258C178.31 118.132 178.487 117.954 178.609 117.739C178.732 117.525 178.797 117.283 178.797 117.036V98.2517C176.16 96.8306 172.908 95.8432 168.879 95.4946C158 94.554 146.049 94.6156 135.849 90.244C128.231 86.9771 121.355 80.4549 113.581 77.1616C109.772 75.553 105.787 74.7238 101.384 75.4036C96.4525 76.1742 92.3006 78.3775 88.7846 81.3983C88.7378 81.4335 88.6997 81.4833 88.6528 81.5185C84.6358 85.011 81.4626 89.5555 79.0072 94.2054C71.2632 108.838 66.6514 127.631 66.2471 144.382V144.569C66.2471 145.322 66.2295 146.066 66.2295 146.811L66.1152 161.294Z" fill="#2E2E2E"/>
<path d="M94.1348 42.9159V47.349H126.45V42.9159C126.451 42.5675 126.432 42.2192 126.394 41.8728C126.135 39.3234 124.938 36.9613 123.036 35.2449C121.133 33.5285 118.661 32.5803 116.098 32.5847H104.466C103.109 32.5839 101.765 32.8508 100.511 33.3697C99.2576 33.8886 98.1184 34.6495 97.1591 35.6091C96.1995 36.5684 95.4386 37.7075 94.9197 38.9613C94.4008 40.2153 94.1339 41.559 94.1348 42.9159Z" fill="#2E2E2E"/>
<path d="M138.571 178.73L143.048 190.013H171.176C171.57 190.013 171.96 189.935 172.323 189.784C172.686 189.634 173.017 189.412 173.295 189.134C173.855 188.567 174.171 187.804 174.174 187.007C174.172 186.318 173.933 185.651 173.498 185.118C173.063 184.584 172.457 184.217 171.783 184.077L159.011 181.46L157.317 174.985L138.571 178.73Z" fill="#C8C8C8"/>
<path d="M178.777 271.371L169.694 259.065V250.688H154.666C154.598 250.689 154.532 250.708 154.474 250.744C154.416 250.779 154.369 250.829 154.337 250.889C154.305 250.949 154.29 251.016 154.292 251.084C154.295 251.151 154.315 251.217 154.352 251.274L171.698 276.422C172.097 277.001 172.632 277.475 173.255 277.802C173.878 278.129 174.571 278.3 175.275 278.3C176.08 278.301 176.869 278.078 177.555 277.656C178.24 277.235 178.795 276.631 179.158 275.913C179.521 275.195 179.678 274.39 179.61 273.588C179.543 272.786 179.254 272.018 178.777 271.371Z" fill="#C8C8C8"/>
<path d="M96.5256 53.7568C97.3838 56.5409 97.8213 59.4375 97.8236 62.3505C104.176 62.3505 105.371 59.2535 104.882 56.8069C104.337 54.0879 105.154 50.2935 108.946 49.7485C112.737 49.2036 111.668 55.1778 111.217 62.2274C111.228 63.7437 111.479 65.2485 111.958 66.6869C112.67 68.8571 114.164 70.6854 116.148 71.8173C118.04 72.8654 120.176 73.3942 122.339 73.3497C122.339 73.3497 126.045 64.129 123.458 63.3672C120.871 62.6054 114.923 55.9894 116.277 47.8382C116.306 47.6595 116.335 47.5012 116.373 47.3401H95.5851C95.5382 49.5165 95.8561 51.6856 96.5256 53.7568Z" fill="#FF7F3E"/>
<path d="M66.2676 144.391V144.578C66.2676 145.331 66.25 146.075 66.25 146.82L66.1475 161.329C66.1475 161.941 66.165 162.545 66.1826 163.146" stroke="black" stroke-width="1.6" stroke-miterlimit="10"/>
<path d="M70.6626 176.989C73.2278 180.989 76.7582 184.279 80.9287 186.557C85.099 188.834 89.7756 190.026 94.5274 190.022H146.681C151.528 190.022 153.936 192.43 153.936 195.396V272.783C153.936 274.247 154.518 275.652 155.554 276.688C156.59 277.724 157.994 278.306 159.459 278.306H178.531" stroke="black" stroke-width="1.6" stroke-miterlimit="10"/>
<path d="M178.777 271.371L169.694 259.065V250.688H154.666C154.598 250.689 154.532 250.708 154.474 250.744C154.416 250.779 154.369 250.829 154.337 250.889C154.305 250.949 154.29 251.016 154.292 251.084C154.295 251.151 154.315 251.217 154.352 251.274L171.698 276.422C172.097 277.001 172.632 277.475 173.255 277.802C173.878 278.129 174.571 278.3 175.275 278.3C176.08 278.301 176.869 278.078 177.555 277.656C178.24 277.235 178.795 276.631 179.158 275.913C179.521 275.195 179.678 274.39 179.61 273.588C179.543 272.786 179.254 272.018 178.777 271.371Z" stroke="black" stroke-width="1.6" stroke-miterlimit="10"/>
<path d="M125.747 160.487L131.686 161.381" stroke="black" stroke-width="1.6" stroke-miterlimit="10"/>
<path d="M166.928 167.479C179.33 172.291 186.559 184.101 185.07 196.853L178.832 250.689H153.927" stroke="black" stroke-width="1.6" stroke-miterlimit="10"/>
<path d="M125.187 145.012L128.791 154.095L131.68 161.388L138.571 178.73L143.048 190.014H171.176C171.57 190.013 171.96 189.936 172.323 189.785C172.687 189.634 173.017 189.413 173.295 189.135C173.855 188.568 174.171 187.804 174.174 187.007C174.172 186.319 173.934 185.652 173.498 185.118C173.063 184.585 172.457 184.217 171.783 184.077L159.011 181.461L157.317 174.986L168.92 172.905L166.937 167.476L150.118 121.475C146.602 111.806 133.461 109.729 126.01 116.825L125.577 117.238L78.4917 162.029" stroke="black" stroke-width="1.6" stroke-miterlimit="10"/>
<path d="M97.0884 190.023C101.493 190.023 105.806 188.766 109.521 186.398C113.235 184.031 116.196 180.652 118.055 176.659L125.744 160.494L128.791 154.095" stroke="black" stroke-width="1.6" stroke-miterlimit="10"/>
<path d="M103.186 100.584C103.186 100.584 106.772 108.735 126.101 111.642C128.387 111.991 130.895 112.255 133.628 112.433C135.777 112.564 138.089 112.636 140.564 112.65C163.215 112.726 172.946 116.224 176.72 118.287C176.936 118.406 177.18 118.467 177.426 118.463C177.673 118.459 177.915 118.391 178.128 118.266C178.341 118.141 178.517 117.962 178.64 117.748C178.763 117.534 178.829 117.292 178.829 117.045V108.753C180.549 109.901 181.812 111.604 182.723 113.535C183.863 115.879 184.481 118.586 184.812 121.062C185.083 123.017 185.212 124.989 185.199 126.963C185.199 127.449 185.392 127.916 185.735 128.261C185.904 128.434 186.106 128.572 186.329 128.665C186.552 128.759 186.791 128.807 187.033 128.806C187.468 128.807 187.89 128.653 188.223 128.373C188.556 128.092 188.778 127.703 188.85 127.273C189.729 122.087 191.466 105.102 178.829 98.2517C176.192 96.8306 172.937 95.8432 168.908 95.4946C158.032 94.554 146.081 94.6156 135.879 90.244C128.246 86.9771 121.378 80.4461 113.611 77.1616C109.816 75.553 105.817 74.7238 101.413 75.4036C96.4817 76.1742 92.3299 78.3775 88.8139 81.3983C84.7295 84.9143 81.5182 89.5086 79.0336 94.2054C71.2896 108.838 66.6778 127.631 66.2734 144.382V144.569C66.2734 145.322 66.2559 146.066 66.2559 146.811" stroke="black" stroke-width="1.6" stroke-miterlimit="10"/>
<path d="M111.99 66.7454L111.964 66.6868C111.422 65.6086 111.085 64.1641 111.22 62.2303C111.665 55.1748 112.752 49.2035 108.952 49.7485C105.152 50.2934 104.34 54.0907 104.894 56.8039C105.383 59.2534 104.194 62.3709 97.8384 62.3533" stroke="black" stroke-width="1.6" stroke-miterlimit="10"/>
<path d="M123.458 63.3677C123.96 61.5335 128.305 61.7913 126.356 57.8183C125.246 55.5504 125.184 51.6858 125.882 47.3494" stroke="black" stroke-width="1.6" stroke-miterlimit="10"/>
<path d="M95.5852 47.3494C95.5424 49.5223 95.8595 51.6875 96.5228 53.7573C97.3857 56.5411 97.8252 59.4391 97.8267 62.3539L97.7212 67.4843C97.6872 69.8626 97.078 72.1972 95.9459 74.2892C94.8134 76.381 93.192 78.168 91.2195 79.4973C90.3053 80.088 89.4515 80.7672 88.6704 81.5249" stroke="black" stroke-width="1.6" stroke-miterlimit="10"/>
<path d="M111.22 62.2303C111.23 63.746 111.481 65.2503 111.964 66.6869C114.452 73.8009 122.336 73.3468 122.336 73.3468C122.336 73.3468 126.048 64.129 123.458 63.3672C120.868 62.6054 114.923 55.9894 116.28 47.8382C116.306 47.6653 116.341 47.4983 116.377 47.3401" stroke="black" stroke-width="1.6" stroke-miterlimit="10"/>
<path d="M126.476 41.8691H126.529" stroke="black" stroke-width="1.6" stroke-miterlimit="10"/>
<path d="M138.571 178.739L157.306 174.994" stroke="black" stroke-width="1.6" stroke-miterlimit="10"/>
<path d="M178.83 108.752V98.251" stroke="black" stroke-width="1.6" stroke-miterlimit="10"/>
<path d="M182.729 113.528C181.071 116.4 181.458 122.207 183.254 122.093C183.875 122.046 184.394 121.621 184.818 121.058" stroke="black" stroke-width="1.6" stroke-miterlimit="10"/>
<path d="M126.529 47.3485V42.9183C126.529 41.5603 126.261 40.2154 125.741 38.9605C125.221 37.7059 124.459 36.5658 123.498 35.6059C122.537 34.6458 121.397 33.8846 120.141 33.3657C118.886 32.8468 117.541 32.5801 116.183 32.5813H104.551C103.193 32.5801 101.848 32.8468 100.593 33.366C99.3384 33.8849 98.1984 34.6461 97.2379 35.6062C96.2775 36.5664 95.516 37.7065 94.9965 38.9611C94.477 40.2157 94.2101 41.5606 94.2109 42.9183V47.3485H138.085" stroke="black" stroke-width="1.6" stroke-miterlimit="10"/>
<path d="M117.842 47.3487C118.047 35.3152 111.193 32.8569 110.373 32.605C110.321 32.5871 110.264 32.5871 110.212 32.605C109.391 32.8569 102.538 35.3152 102.743 47.3487" stroke="black" stroke-width="1.6" stroke-miterlimit="10"/>
<path d="M112.608 32.5229C112.587 31.9228 112.334 31.3544 111.902 30.9375C111.47 30.5205 110.893 30.2876 110.292 30.2876C109.692 30.2876 109.115 30.5205 108.683 30.9375C108.251 31.3544 107.997 31.9228 107.976 32.5229H112.608Z" fill="black"/>
<path d="M116.148 71.8113L113.616 77.1585" stroke="black" stroke-width="1.6" stroke-miterlimit="10"/>
<path d="M125.076 51.8608C125.076 51.8608 121.123 51.1488 119.617 54.2048" stroke="black" stroke-width="1.6" stroke-miterlimit="10"/>
<path d="M123.159 56.0733C123.711 55.6886 123.894 54.9957 123.566 54.5257C123.239 54.0554 122.526 53.9863 121.973 54.3713C121.421 54.756 121.239 55.449 121.566 55.9189C121.894 56.3889 122.607 56.458 123.159 56.0733Z" fill="black"/>
<path d="M119.954 64.0295C119.954 64.0295 121.457 66.1479 124.525 65.392" stroke="black" stroke-width="1.6" stroke-miterlimit="10"/>
<path d="M80.1119 160.487C80.1119 160.487 71.4918 167.478 70.1704 180.071C69.6254 185.266 72.8953 190.019 78.1195 190.019H95.2571" stroke="black" stroke-width="1.6" stroke-miterlimit="10"/>
<path d="M71.8698 186.831C71.8698 186.831 65.8809 177.628 66.1504 159.289" stroke="black" stroke-width="1.6" stroke-miterlimit="10"/>
<path d="M125.565 117.25C125.848 115.389 126.027 113.514 126.101 111.633" stroke="black" stroke-width="1.6" stroke-miterlimit="10"/>
<path d="M71.4008 178.077C71.4008 178.077 71.0638 177.447 70.6624 178.329C70.261 179.211 68.629 186.495 73.651 188.616C78.673 190.737 89.2181 189.527 89.2181 189.527C89.2181 189.527 76.7656 186.884 71.4008 178.077Z" fill="black"/>
</g>
</g>
<defs>
<clipPath id="clip0_118_7820">
<rect width="293" height="293" fill="white"/>
</clipPath>
</defs>
</svg>
