<svg width="17" height="17" viewBox="0 0 17 17" fill="none" xmlns="http://www.w3.org/2000/svg">
<g clip-path="url(#clip0_261_806)">
<path d="M15.5834 11.9849V14.1099C15.5842 14.3072 15.5438 14.5024 15.4647 14.6832C15.3857 14.8639 15.2698 15.0262 15.1244 15.1596C14.9791 15.2929 14.8075 15.3945 14.6206 15.4577C14.4337 15.5209 14.2357 15.5443 14.0392 15.5266C11.8596 15.2897 9.76584 14.5449 7.9263 13.352C6.21485 12.2645 4.76383 10.8134 3.6763 9.10199C2.47921 7.25409 1.73423 5.15019 1.50172 2.96074C1.48402 2.76486 1.5073 2.56744 1.57008 2.38106C1.63285 2.19467 1.73375 2.02339 1.86635 1.87814C1.99894 1.73288 2.16033 1.61683 2.34024 1.53736C2.52015 1.45789 2.71463 1.41676 2.9113 1.41657H5.0363C5.38006 1.41319 5.71332 1.53492 5.97397 1.75907C6.23461 1.98323 6.40486 2.29451 6.45297 2.63491C6.54266 3.31495 6.709 3.98267 6.9488 4.62532C7.04411 4.87885 7.06473 5.15439 7.00824 5.41928C6.95174 5.68417 6.8205 5.92732 6.63005 6.11991L5.73047 7.01949C6.73882 8.79283 8.20713 10.2611 9.98047 11.2695L10.8801 10.3699C11.0726 10.1795 11.3158 10.0482 11.5807 9.99172C11.8456 9.93523 12.1211 9.95585 12.3746 10.0512C13.0173 10.291 13.685 10.4573 14.3651 10.547C14.7091 10.5955 15.0234 10.7688 15.248 11.034C15.4726 11.2991 15.592 11.6375 15.5834 11.9849Z" stroke="#FF7F3E" stroke-width="1.5" stroke-linecap="round" stroke-linejoin="round"/>
</g>
<defs>
<clipPath id="clip0_261_806">
<rect width="17" height="17" fill="white"/>
</clipPath>
</defs>
</svg>
