<svg width="15" height="17" viewBox="0 0 15 17" fill="none" xmlns="http://www.w3.org/2000/svg">
<path d="M4.03846 7.95655H3.46154V9.04388H4.03846V7.95655ZM10.9615 9.04388H11.5385V7.95655H10.9615V9.04388ZM4.03846 4.69455H3.46154V5.78188H4.03846V4.69455ZM6.34615 5.78188H6.92308V4.69455H6.34615V5.78188ZM10.9615 0.888882L11.3695 0.504452L11.2005 0.345215H10.9615V0.888882ZM14.4231 4.15088H15V3.92568L14.8311 3.76645L14.4231 4.15088ZM7.5 12.8495L7.75801 13.3358L7.80453 13.3139L7.84615 13.2845L7.5 12.8495ZM4.03846 9.04388H10.9615V7.95655H4.03846V9.04388ZM4.03846 5.78188H6.34615V4.69455H4.03846V5.78188ZM13.2692 15.5679H1.73077V16.6552H13.2692V15.5679ZM1.15385 15.0242V1.97621H0V15.0242H1.15385ZM1.73077 1.43255H10.9615V0.345215H1.73077V1.43255ZM13.8462 4.15088V15.0242H15V4.15088H13.8462ZM10.5535 1.27331L14.0151 4.53531L14.8311 3.76645L11.3695 0.504452L10.5535 1.27331ZM1.73077 15.5679C1.41215 15.5679 1.15385 15.3244 1.15385 15.0242H0C0 15.925 0.774888 16.6552 1.73077 16.6552V15.5679ZM13.2692 16.6552C14.2251 16.6552 15 15.925 15 15.0242H13.8462C13.8462 15.3244 13.5878 15.5679 13.2692 15.5679V16.6552ZM1.15385 1.97621C1.15385 1.67596 1.41215 1.43255 1.73077 1.43255V0.345215C0.774888 0.345215 0 1.07544 0 1.97621H1.15385ZM5.1627 13.0215C5.29094 12.6589 5.65485 12.3237 6.12084 12.2057C6.55536 12.0957 7.11464 12.1679 7.66898 12.6904L8.48487 11.9214C7.6546 11.139 6.67542 10.9394 5.82147 11.1556C4.99899 11.3638 4.32444 11.9528 4.06807 12.6776L5.1627 13.0215ZM7.66898 12.6904C7.70663 12.7258 7.73616 12.7576 7.75914 12.7855L8.6703 12.1183C8.61471 12.0509 8.55269 11.9853 8.48487 11.9214L7.66898 12.6904ZM7.75914 12.7855C7.84948 12.895 7.82932 12.9291 7.83226 12.9057C7.83423 12.8898 7.83969 12.9144 7.77029 12.9738C7.70035 13.0337 7.58697 13.0994 7.43596 13.1572C7.28806 13.2138 7.12703 13.2539 6.98127 13.2747C6.82718 13.2967 6.7282 13.2917 6.6927 13.285C6.67277 13.2813 6.71334 13.2846 6.77219 13.3254C6.84691 13.3771 6.94052 13.4863 6.94797 13.6435C6.95109 13.7098 6.93697 13.7616 6.92437 13.7936C6.91209 13.8247 6.8995 13.8417 6.89769 13.8441C6.89589 13.8465 6.91499 13.8218 6.98114 13.7714C7.11248 13.6714 7.35433 13.526 7.75801 13.3358L7.24199 12.3633C6.80665 12.5684 6.48065 12.7545 6.2557 12.9259C6.14372 13.0112 6.03757 13.1072 5.95598 13.2158C5.87822 13.3193 5.78544 13.4843 5.79526 13.6919C5.80637 13.9269 5.94166 14.0995 6.08863 14.2014C6.21972 14.2922 6.36308 14.332 6.46907 14.3517C6.68541 14.392 6.93074 14.3816 7.15387 14.3499C7.5928 14.2872 8.16036 14.1092 8.54656 13.7782C8.74776 13.6058 8.93761 13.3578 8.9782 13.0327C9.01976 12.6998 8.89245 12.3878 8.6703 12.1183L7.75914 12.7855ZM7.84615 13.2845C8.05809 13.1346 8.25738 13.0269 8.44382 12.9509L7.98562 11.9529C7.70856 12.0659 7.43136 12.2185 7.15385 12.4146L7.84615 13.2845ZM8.44382 12.9509C9.1949 12.6446 9.86453 12.8065 10.5512 13.1146C10.7236 13.1921 10.8921 13.2764 11.0627 13.3634C11.229 13.4482 11.4046 13.5395 11.5717 13.6192C11.889 13.7705 12.2844 13.9369 12.6923 13.9369V12.8495C12.5844 12.8495 12.4065 12.7987 12.0928 12.649C11.9444 12.5783 11.7901 12.4981 11.6121 12.4072C11.4383 12.3186 11.248 12.223 11.0474 12.133C10.2415 11.7713 9.18812 11.4627 7.98562 11.9529L8.44382 12.9509Z" fill="#FF7F3E"/>
</svg>
