<svg width="24" height="23" viewBox="0 0 24 23" fill="none" xmlns="http://www.w3.org/2000/svg">
<path d="M16.3474 11.4995V5.51855C16.3474 3.23175 14.4693 1.37793 12.1525 1.37793C9.83568 1.37793 7.95757 3.23175 7.95757 5.51855V11.4995C7.95757 13.7863 9.83568 15.6401 12.1525 15.6401C14.4693 15.6401 16.3474 13.7863 16.3474 11.4995Z" fill="#FF7F3E"/>
<path d="M5.16096 10.1192C5.6758 10.1192 6.09317 10.5312 6.09317 11.0394C6.09317 14.3426 8.806 17.0203 12.1525 17.0203C15.499 17.0203 18.2118 14.3426 18.2118 11.0394C18.2118 10.5312 18.6292 10.1192 19.144 10.1192C19.6589 10.1192 20.0762 10.5312 20.0762 11.0394C20.0762 15.0476 17.0216 18.3516 13.0847 18.807V20.7008C13.0847 21.209 12.6673 21.621 12.1525 21.621C11.6376 21.621 11.2203 21.209 11.2203 20.7008V18.807C7.28342 18.3516 4.22876 15.0476 4.22876 11.0394C4.22876 10.5312 4.64612 10.1192 5.16096 10.1192Z" fill="#FF7F3E"/>
</svg>
